<svg xmlns="http://www.w3.org/2000/svg" style="display: none;">
  <symbol id="car" viewBox="144 0 512 512">
    <defs>
      <clipPath id="car-clip">
        <path d="m148.09 322h503.81v156h-503.81z"></path>
      </clipPath>
    </defs>
    <g clip-path="url(#car-clip)">
      <path d="m572.94 451.71c-6.9883 14.676-22.359 25.855-39.828 25.855-18.168 0-33.539-11.18-39.828-25.855h-221.51c-6.2891 14.676-21.66 25.855-39.828 25.855-17.469 0-33.539-11.18-39.828-26.555l-15.371 0.69922c-10.48-6.2891-18.867-15.371-26.555-25.156-5.5898-19.566 0.69922-46.816 16.07-76.164 81.059-2.7969 181.68-45.418 303.27-19.566l57.996 33.539c36.336-2.7969 153.73 33.539 117.39 87.344h-71.973zm-389.91-87.344c6.2891 0 11.18 4.8906 11.18 11.18 0 6.2891-4.8906 11.18-11.18 11.18s-11.18-4.8906-11.18-11.18c0-6.2891 4.8906-11.18 11.18-11.18zm285.1-23.758c-23.758-6.2891-51.012-9.082-77.562-9.082l-15.371 30.047c31.445 5.5898 108.31 15.371 139.05 6.2891l-46.117-27.25zm-85.25-9.082-15.371 29.348c-33.539-6.2891-68.48-9.7812-83.152-9.7812-2.7969 0-5.5898-1.3984-2.7969-4.1914 27.949-8.3867 64.285-13.977 101.32-15.371zm150.23 62.891c20.965 0 37.035 16.77 37.035 36.336s-16.07 36.336-37.035 36.336c-20.266 0-36.336-16.77-36.336-36.336s16.07-36.336 36.336-36.336zm-300.47 0c20.266 0 36.336 16.77 36.336 36.336s-16.07 36.336-36.336 36.336-36.336-16.77-36.336-36.336 16.07-36.336 36.336-36.336z" fill-rule="evenodd"></path>
    </g>
  </symbol>

  <symbol id="flag" viewBox="0 0 512 512">
    <g>
      <rect x="370.447" y="159.624" fill="#E7ECED" width="96.376" height="72.282"/>
      <rect x="370.447" y="9.035" fill="#E7ECED" width="96.376" height="78.306"/>
      <rect x="274.071" y="87.341" fill="#E7ECED" width="96.376" height="72.282"/>
      <rect x="274.071" y="231.906" fill="#E7ECED" width="96.376" height="78.306"/>
      <rect x="81.318" y="231.906" fill="#E7ECED" width="96.376" height="78.306"/>
      <rect x="177.694" y="159.624" fill="#E7ECED" width="96.376" height="72.282"/>
      <rect x="177.694" y="9.035" fill="#E7ECED" width="96.376" height="78.306"/>
      <rect x="81.318" y="87.341" fill="#E7ECED" width="96.376" height="72.282"/>
    </g>
    <g>
      <rect x="370.447" y="231.906" fill="#546A79" width="96.376" height="78.306"/>
      <rect x="177.694" y="231.906" fill="#546A79" width="96.376" height="78.306"/>
      <rect x="274.071" y="159.624" fill="#546A79" width="96.376" height="72.282"/>
      <rect x="81.318" y="159.624" fill="#546A79" width="96.376" height="72.282"/>
      <rect x="370.447" y="87.341" fill="#546A79" width="96.376" height="72.282"/>
      <rect x="274.071" y="9.035" fill="#546A79" width="96.376" height="78.306"/>
      <rect x="177.694" y="87.341" fill="#546A79" width="96.376" height="72.282"/>
      <rect x="81.318" y="9.035" fill="#546A79" width="96.376" height="78.306"/>
    </g>
    <polygon fill="#BBC0C2" points="81.318,310.212 81.318,502.965 45.176,502.965 45.176,9.035 81.318,9.035 81.318,87.341 81.318,159.624 81.318,231.906"/>
    <path d="M475.859,0H36.141v512h54.212V319.247h385.506V0z M457.788,78.306h-78.306V18.071h78.306V78.306z M283.106,78.306V18.071 h78.306v60.235H283.106z M361.412,96.376v54.212h-78.306V96.376H361.412z M265.035,78.306h-78.306V18.071h78.306V78.306z M265.035,96.376v54.212h-78.306V96.376H265.035z M168.659,150.588H90.353V96.376h78.306V150.588z M90.353,168.659h78.306v54.212 H90.353V168.659z M186.729,168.659h78.306v54.212h-78.306V168.659z M265.035,240.941v60.235h-78.306v-60.235H265.035z M283.106,240.941h78.306v60.235h-78.306V240.941z M283.106,222.871v-54.212h78.306v54.212H283.106z M379.482,168.659h78.306v54.212 h-78.306V168.659z M379.482,150.588V96.376h78.306v54.212H379.482z M168.659,18.071v60.235H90.353V18.071H168.659z M72.282,493.929 H54.212V18.071h18.071v292.141v9.035V493.929z M90.353,240.941h78.306v60.235H90.353V240.941z M379.482,301.176v-60.235h78.306 v60.235H379.482z"/>
  </symbol>
</svg>